<mxfile host="app.diagrams.net" modified="2021-02-07T18:25:55.296Z" agent="5.0 (Windows)" etag="BQfxgKwKU_jYvfSEPdpn" version="14.2.9" type="github">
  <diagram id="4TcA--l6-rnaQMClrimV" name="Page-1">
    <mxGraphModel dx="1422" dy="1932" grid="1" gridSize="10" guides="1" tooltips="1" connect="1" arrows="1" fold="1" page="1" pageScale="1" pageWidth="827" pageHeight="1169" math="0" shadow="0">
      <root>
        <mxCell id="0" />
        <mxCell id="1" parent="0" />
        <mxCell id="H4LWLAwvoOy_DzZA3Qej-47" value="" style="rounded=1;whiteSpace=wrap;html=1;rotation=-90;fillColor=#dae8fc;strokeColor=#6c8ebf;" vertex="1" parent="1">
          <mxGeometry x="80" y="160" width="120" height="60" as="geometry" />
        </mxCell>
        <mxCell id="H4LWLAwvoOy_DzZA3Qej-14" value="Added &lt;br&gt;questions" style="rounded=0;whiteSpace=wrap;html=1;fillColor=#d5e8d4;strokeColor=#82b366;" vertex="1" parent="1">
          <mxGeometry x="540" y="-20" width="120" height="60" as="geometry" />
        </mxCell>
        <mxCell id="H4LWLAwvoOy_DzZA3Qej-12" value="Quiz history" style="rounded=0;whiteSpace=wrap;html=1;fillColor=#d5e8d4;strokeColor=#82b366;" vertex="1" parent="1">
          <mxGeometry x="540" y="-80" width="120" height="60" as="geometry" />
        </mxCell>
        <mxCell id="H4LWLAwvoOy_DzZA3Qej-11" value="Name" style="rounded=0;whiteSpace=wrap;html=1;fillColor=#d5e8d4;strokeColor=#82b366;" vertex="1" parent="1">
          <mxGeometry x="540" y="-140" width="120" height="60" as="geometry" />
        </mxCell>
        <mxCell id="H4LWLAwvoOy_DzZA3Qej-6" value="&lt;div&gt;Comment &lt;br&gt;&lt;/div&gt;&lt;div&gt;section&lt;/div&gt;" style="rounded=0;whiteSpace=wrap;html=1;fillColor=#dae8fc;strokeColor=#6c8ebf;" vertex="1" parent="1">
          <mxGeometry x="250" y="-20" width="120" height="60" as="geometry" />
        </mxCell>
        <mxCell id="Srqo1MTjmUJcDtNH-crw-1" value="&lt;font style=&quot;font-size: 28px&quot;&gt;Private Plane License API&lt;/font&gt;" style="rounded=1;whiteSpace=wrap;html=1;" parent="1" vertex="1">
          <mxGeometry x="119" y="490" width="570" height="200" as="geometry" />
        </mxCell>
        <mxCell id="Srqo1MTjmUJcDtNH-crw-3" value="Web Client" style="rounded=0;whiteSpace=wrap;html=1;fillColor=#e1d5e7;strokeColor=#9673a6;" parent="1" vertex="1">
          <mxGeometry x="110" y="70" width="550" height="60" as="geometry" />
        </mxCell>
        <mxCell id="Srqo1MTjmUJcDtNH-crw-4" value="Database" style="shape=cylinder3;whiteSpace=wrap;html=1;boundedLbl=1;backgroundOutline=1;size=15;" parent="1" vertex="1">
          <mxGeometry x="330" y="730" width="130" height="140" as="geometry" />
        </mxCell>
        <mxCell id="Srqo1MTjmUJcDtNH-crw-10" value="" style="shape=flexArrow;endArrow=classic;html=1;entryX=0;entryY=0.621;entryDx=0;entryDy=0;entryPerimeter=0;exitX=0.142;exitY=1.01;exitDx=0;exitDy=0;exitPerimeter=0;" parent="1" source="Srqo1MTjmUJcDtNH-crw-1" target="Srqo1MTjmUJcDtNH-crw-4" edge="1">
          <mxGeometry width="50" height="50" relative="1" as="geometry">
            <mxPoint x="400" y="260" as="sourcePoint" />
            <mxPoint x="450" y="210" as="targetPoint" />
          </mxGeometry>
        </mxCell>
        <mxCell id="Srqo1MTjmUJcDtNH-crw-11" value="" style="shape=flexArrow;endArrow=classic;html=1;exitX=1;exitY=0.5;exitDx=0;exitDy=0;exitPerimeter=0;entryX=0.861;entryY=1.015;entryDx=0;entryDy=0;entryPerimeter=0;" parent="1" source="Srqo1MTjmUJcDtNH-crw-4" target="Srqo1MTjmUJcDtNH-crw-1" edge="1">
          <mxGeometry width="50" height="50" relative="1" as="geometry">
            <mxPoint x="210.94000000000005" y="422" as="sourcePoint" />
            <mxPoint x="640" y="490" as="targetPoint" />
          </mxGeometry>
        </mxCell>
        <mxCell id="H4LWLAwvoOy_DzZA3Qej-2" value="&lt;div&gt;&lt;br&gt;&lt;/div&gt;&lt;div&gt;Answer&lt;/div&gt;&lt;div&gt; choices&lt;/div&gt;&lt;div&gt;&lt;br&gt;&lt;/div&gt;" style="rounded=0;whiteSpace=wrap;html=1;fillColor=#dae8fc;strokeColor=#6c8ebf;" vertex="1" parent="1">
          <mxGeometry x="250" y="-140" width="120" height="60" as="geometry" />
        </mxCell>
        <mxCell id="H4LWLAwvoOy_DzZA3Qej-4" value="Picture" style="rounded=0;whiteSpace=wrap;html=1;fillColor=#dae8fc;strokeColor=#6c8ebf;" vertex="1" parent="1">
          <mxGeometry x="250" y="-200" width="120" height="60" as="geometry" />
        </mxCell>
        <mxCell id="H4LWLAwvoOy_DzZA3Qej-5" value="Explanation" style="rounded=0;whiteSpace=wrap;html=1;fillColor=#dae8fc;strokeColor=#6c8ebf;" vertex="1" parent="1">
          <mxGeometry x="250" y="-80" width="120" height="60" as="geometry" />
        </mxCell>
        <mxCell id="H4LWLAwvoOy_DzZA3Qej-1" value="Questions" style="rounded=0;whiteSpace=wrap;html=1;fillColor=#dae8fc;strokeColor=#6c8ebf;" vertex="1" parent="1">
          <mxGeometry x="179" y="-190" width="91" height="210" as="geometry" />
        </mxCell>
        <mxCell id="H4LWLAwvoOy_DzZA3Qej-3" value="Topics" style="rounded=0;whiteSpace=wrap;html=1;fillColor=#dae8fc;strokeColor=#6c8ebf;" vertex="1" parent="1">
          <mxGeometry x="90" y="-160" width="120" height="60" as="geometry" />
        </mxCell>
        <mxCell id="H4LWLAwvoOy_DzZA3Qej-10" value="" style="edgeStyle=orthogonalEdgeStyle;rounded=0;orthogonalLoop=1;jettySize=auto;html=1;" edge="1" parent="1" source="H4LWLAwvoOy_DzZA3Qej-9" target="H4LWLAwvoOy_DzZA3Qej-7">
          <mxGeometry relative="1" as="geometry" />
        </mxCell>
        <mxCell id="H4LWLAwvoOy_DzZA3Qej-9" value="Picture" style="rounded=0;whiteSpace=wrap;html=1;fillColor=#d5e8d4;strokeColor=#82b366;" vertex="1" parent="1">
          <mxGeometry x="540" y="-200" width="120" height="60" as="geometry" />
        </mxCell>
        <mxCell id="H4LWLAwvoOy_DzZA3Qej-8" value="Profile" style="rounded=0;whiteSpace=wrap;html=1;fillColor=#d5e8d4;strokeColor=#82b366;" vertex="1" parent="1">
          <mxGeometry x="474" y="-190" width="91" height="210" as="geometry" />
        </mxCell>
        <mxCell id="H4LWLAwvoOy_DzZA3Qej-7" value="Users" style="rounded=0;whiteSpace=wrap;html=1;fillColor=#d5e8d4;strokeColor=#82b366;" vertex="1" parent="1">
          <mxGeometry x="404" y="-160" width="120" height="60" as="geometry" />
        </mxCell>
        <mxCell id="H4LWLAwvoOy_DzZA3Qej-16" value="Quiz resources" style="ellipse;shape=cloud;whiteSpace=wrap;html=1;" vertex="1" parent="1">
          <mxGeometry x="90" y="-290" width="261" height="80" as="geometry" />
        </mxCell>
        <mxCell id="H4LWLAwvoOy_DzZA3Qej-18" value="User resources" style="ellipse;shape=cloud;whiteSpace=wrap;html=1;" vertex="1" parent="1">
          <mxGeometry x="440" y="-290" width="261" height="80" as="geometry" />
        </mxCell>
        <mxCell id="H4LWLAwvoOy_DzZA3Qej-48" value="&lt;div&gt;GET Topics&lt;/div&gt;&lt;div&gt;&lt;br&gt;&lt;/div&gt;" style="text;html=1;strokeColor=none;fillColor=none;align=center;verticalAlign=middle;whiteSpace=wrap;rounded=0;rotation=-90;" vertex="1" parent="1">
          <mxGeometry x="87.25" y="170" width="105.5" height="40" as="geometry" />
        </mxCell>
        <mxCell id="H4LWLAwvoOy_DzZA3Qej-33" value="" style="rounded=1;whiteSpace=wrap;html=1;rotation=-90;fillColor=#dae8fc;strokeColor=#6c8ebf;" vertex="1" parent="1">
          <mxGeometry x="250" y="400" width="120" height="60" as="geometry" />
        </mxCell>
        <mxCell id="H4LWLAwvoOy_DzZA3Qej-34" value="&lt;div&gt;Question 1; pic, choices&lt;/div&gt;&lt;div&gt;&lt;br&gt;&lt;/div&gt;" style="text;html=1;strokeColor=none;fillColor=none;align=center;verticalAlign=middle;whiteSpace=wrap;rounded=0;rotation=-90;" vertex="1" parent="1">
          <mxGeometry x="257.25" y="410" width="105.5" height="40" as="geometry" />
        </mxCell>
        <mxCell id="H4LWLAwvoOy_DzZA3Qej-50" value="" style="rounded=1;whiteSpace=wrap;html=1;rotation=-90;fillColor=#dae8fc;strokeColor=#6c8ebf;" vertex="1" parent="1">
          <mxGeometry x="200" y="160" width="120" height="60" as="geometry" />
        </mxCell>
        <mxCell id="H4LWLAwvoOy_DzZA3Qej-51" value="&lt;div&gt;GET Question 1 from Topic X&lt;/div&gt;&lt;div&gt;&lt;br&gt;&lt;/div&gt;" style="text;html=1;strokeColor=none;fillColor=none;align=center;verticalAlign=middle;whiteSpace=wrap;rounded=0;rotation=-90;" vertex="1" parent="1">
          <mxGeometry x="207.25" y="170" width="105.5" height="40" as="geometry" />
        </mxCell>
        <mxCell id="H4LWLAwvoOy_DzZA3Qej-53" value="&lt;div&gt;Topics&lt;/div&gt;&lt;div&gt;&lt;br&gt;&lt;/div&gt;" style="rounded=1;whiteSpace=wrap;html=1;rotation=-90;fillColor=#dae8fc;strokeColor=#6c8ebf;" vertex="1" parent="1">
          <mxGeometry x="137.25" y="400" width="120" height="60" as="geometry" />
        </mxCell>
        <mxCell id="H4LWLAwvoOy_DzZA3Qej-54" value="" style="shape=flexArrow;endArrow=classic;html=1;exitX=0;exitY=0.5;exitDx=0;exitDy=0;entryX=0.037;entryY=0;entryDx=0;entryDy=0;entryPerimeter=0;" edge="1" parent="1" source="H4LWLAwvoOy_DzZA3Qej-47" target="Srqo1MTjmUJcDtNH-crw-1">
          <mxGeometry width="50" height="50" relative="1" as="geometry">
            <mxPoint x="360" y="190" as="sourcePoint" />
            <mxPoint x="410" y="140" as="targetPoint" />
          </mxGeometry>
        </mxCell>
        <mxCell id="H4LWLAwvoOy_DzZA3Qej-55" value="" style="shape=flexArrow;endArrow=classic;html=1;exitX=1;exitY=0.5;exitDx=0;exitDy=0;entryX=0.16;entryY=1.05;entryDx=0;entryDy=0;entryPerimeter=0;" edge="1" parent="1" source="H4LWLAwvoOy_DzZA3Qej-53" target="Srqo1MTjmUJcDtNH-crw-3">
          <mxGeometry width="50" height="50" relative="1" as="geometry">
            <mxPoint x="362.75" y="130" as="sourcePoint" />
            <mxPoint x="362.8399999999999" y="370" as="targetPoint" />
          </mxGeometry>
        </mxCell>
        <mxCell id="H4LWLAwvoOy_DzZA3Qej-56" value="" style="shape=flexArrow;endArrow=classic;html=1;exitX=1;exitY=0.5;exitDx=0;exitDy=0;entryX=0.16;entryY=1.05;entryDx=0;entryDy=0;entryPerimeter=0;" edge="1" parent="1">
          <mxGeometry width="50" height="50" relative="1" as="geometry">
            <mxPoint x="309.5" y="367" as="sourcePoint" />
            <mxPoint x="310.25" y="130" as="targetPoint" />
          </mxGeometry>
        </mxCell>
        <mxCell id="H4LWLAwvoOy_DzZA3Qej-57" value="" style="shape=flexArrow;endArrow=classic;html=1;exitX=0;exitY=0.5;exitDx=0;exitDy=0;entryX=0.037;entryY=0;entryDx=0;entryDy=0;entryPerimeter=0;" edge="1" parent="1">
          <mxGeometry width="50" height="50" relative="1" as="geometry">
            <mxPoint x="256.25" y="250" as="sourcePoint" />
            <mxPoint x="256.3399999999999" y="490" as="targetPoint" />
          </mxGeometry>
        </mxCell>
        <mxCell id="H4LWLAwvoOy_DzZA3Qej-65" value="&lt;div&gt;Right/wrong, correct answer, explanation&lt;br&gt;&lt;/div&gt;&lt;div&gt;&lt;br&gt;&lt;/div&gt;" style="rounded=1;whiteSpace=wrap;html=1;rotation=-90;fillColor=#dae8fc;strokeColor=#6c8ebf;" vertex="1" parent="1">
          <mxGeometry x="344" y="397" width="120" height="60" as="geometry" />
        </mxCell>
        <mxCell id="H4LWLAwvoOy_DzZA3Qej-66" value="" style="shape=flexArrow;endArrow=classic;html=1;exitX=1;exitY=0.5;exitDx=0;exitDy=0;entryX=0.16;entryY=1.05;entryDx=0;entryDy=0;entryPerimeter=0;" edge="1" parent="1" source="H4LWLAwvoOy_DzZA3Qej-65">
          <mxGeometry width="50" height="50" relative="1" as="geometry">
            <mxPoint x="569.5" y="127" as="sourcePoint" />
            <mxPoint x="404.75" y="130" as="targetPoint" />
          </mxGeometry>
        </mxCell>
        <mxCell id="H4LWLAwvoOy_DzZA3Qej-69" value="" style="group" vertex="1" connectable="0" parent="1">
          <mxGeometry x="330" y="130" width="60" height="360" as="geometry" />
        </mxCell>
        <mxCell id="H4LWLAwvoOy_DzZA3Qej-60" value="" style="rounded=1;whiteSpace=wrap;html=1;rotation=-90;fillColor=#dae8fc;strokeColor=#6c8ebf;" vertex="1" parent="H4LWLAwvoOy_DzZA3Qej-69">
          <mxGeometry x="-30" y="30" width="120" height="60" as="geometry" />
        </mxCell>
        <mxCell id="H4LWLAwvoOy_DzZA3Qej-61" value="POST answer" style="text;html=1;strokeColor=none;fillColor=none;align=center;verticalAlign=middle;whiteSpace=wrap;rounded=0;rotation=-90;" vertex="1" parent="H4LWLAwvoOy_DzZA3Qej-69">
          <mxGeometry x="-22.75" y="40" width="105.5" height="40" as="geometry" />
        </mxCell>
        <mxCell id="H4LWLAwvoOy_DzZA3Qej-62" value="" style="shape=flexArrow;endArrow=classic;html=1;exitX=0;exitY=0.5;exitDx=0;exitDy=0;entryX=0.037;entryY=0;entryDx=0;entryDy=0;entryPerimeter=0;" edge="1" parent="H4LWLAwvoOy_DzZA3Qej-69">
          <mxGeometry width="50" height="50" relative="1" as="geometry">
            <mxPoint x="26.25" y="120" as="sourcePoint" />
            <mxPoint x="26.339999999999918" y="360" as="targetPoint" />
          </mxGeometry>
        </mxCell>
        <mxCell id="H4LWLAwvoOy_DzZA3Qej-70" value="" style="group" vertex="1" connectable="0" parent="1">
          <mxGeometry x="430" y="130" width="60" height="360" as="geometry" />
        </mxCell>
        <mxCell id="H4LWLAwvoOy_DzZA3Qej-71" value="" style="rounded=1;whiteSpace=wrap;html=1;rotation=-90;fillColor=#dae8fc;strokeColor=#6c8ebf;" vertex="1" parent="H4LWLAwvoOy_DzZA3Qej-70">
          <mxGeometry x="-30" y="30" width="120" height="60" as="geometry" />
        </mxCell>
        <mxCell id="H4LWLAwvoOy_DzZA3Qej-72" value="&lt;div&gt;POST comment, feedback?&lt;/div&gt;&lt;div&gt;&lt;br&gt;&lt;/div&gt;" style="text;html=1;strokeColor=none;fillColor=none;align=center;verticalAlign=middle;whiteSpace=wrap;rounded=0;rotation=-90;" vertex="1" parent="H4LWLAwvoOy_DzZA3Qej-70">
          <mxGeometry x="-22.75" y="40" width="105.5" height="40" as="geometry" />
        </mxCell>
        <mxCell id="H4LWLAwvoOy_DzZA3Qej-73" value="" style="shape=flexArrow;endArrow=classic;html=1;exitX=0;exitY=0.5;exitDx=0;exitDy=0;entryX=0.037;entryY=0;entryDx=0;entryDy=0;entryPerimeter=0;" edge="1" parent="H4LWLAwvoOy_DzZA3Qej-70">
          <mxGeometry width="50" height="50" relative="1" as="geometry">
            <mxPoint x="26.25" y="120" as="sourcePoint" />
            <mxPoint x="26.339999999999918" y="360" as="targetPoint" />
          </mxGeometry>
        </mxCell>
        <mxCell id="H4LWLAwvoOy_DzZA3Qej-74" value="" style="group" vertex="1" connectable="0" parent="1">
          <mxGeometry x="530" y="130" width="60" height="360" as="geometry" />
        </mxCell>
        <mxCell id="H4LWLAwvoOy_DzZA3Qej-75" value="" style="rounded=1;whiteSpace=wrap;html=1;rotation=-90;fillColor=#dae8fc;strokeColor=#6c8ebf;" vertex="1" parent="H4LWLAwvoOy_DzZA3Qej-74">
          <mxGeometry x="-30" y="30" width="120" height="60" as="geometry" />
        </mxCell>
        <mxCell id="H4LWLAwvoOy_DzZA3Qej-76" value="&lt;div&gt;GET next question?&lt;/div&gt;&lt;div&gt;&lt;br&gt;&lt;/div&gt;" style="text;html=1;strokeColor=none;fillColor=none;align=center;verticalAlign=middle;whiteSpace=wrap;rounded=0;rotation=-90;" vertex="1" parent="H4LWLAwvoOy_DzZA3Qej-74">
          <mxGeometry x="-22.75" y="40" width="105.5" height="40" as="geometry" />
        </mxCell>
        <mxCell id="H4LWLAwvoOy_DzZA3Qej-77" value="" style="shape=flexArrow;endArrow=classic;html=1;exitX=0;exitY=0.5;exitDx=0;exitDy=0;entryX=0.037;entryY=0;entryDx=0;entryDy=0;entryPerimeter=0;" edge="1" parent="H4LWLAwvoOy_DzZA3Qej-74">
          <mxGeometry width="50" height="50" relative="1" as="geometry">
            <mxPoint x="26.25" y="120" as="sourcePoint" />
            <mxPoint x="26.339999999999918" y="360" as="targetPoint" />
          </mxGeometry>
        </mxCell>
      </root>
    </mxGraphModel>
  </diagram>
</mxfile>
